<svg width="540" height="540" viewBox="0 0 540 540" fill="none" xmlns="http://www.w3.org/2000/svg">
<path fill-rule="evenodd" clip-rule="evenodd" d="M358.555 141.959C358.415 141.962 358.277 141.994 358.15 142.053C358.023 142.112 357.909 142.197 357.817 142.301C357.725 142.406 357.655 142.528 357.612 142.661C357.57 142.793 357.556 142.933 357.57 143.072C362.496 186.965 367.337 230.65 372.093 274.127C372.383 276.768 373.311 282.402 374.877 291.028C383.377 337.938 426.099 370.067 472.504 376.942C486.434 379.001 503.127 378.845 517.978 378.502C519.008 378.474 519.403 378.953 519.163 379.938L511.743 410.538C511.704 410.694 511.612 410.832 511.483 410.929C511.353 411.025 511.195 411.075 511.034 411.068C481.861 409.81 453.334 405.795 425.823 393.657C401.044 382.715 380.445 365.001 365.562 342.764C349.06 318.082 343.789 291.018 341.873 261.895C341.802 260.751 340.558 260.178 339.541 259.71C339.347 259.621 339.161 259.535 338.993 259.451C313.822 246.439 290.26 226.271 270.423 207.382C270.155 207.119 269.887 207.119 269.619 207.382C253.614 223.275 236.297 237.58 217.667 250.297C212.473 253.841 207.071 257.01 201.461 259.804C201.129 259.971 200.949 260.231 200.921 260.584C200.272 267.546 199.478 274.484 198.539 281.397C194.962 307.809 184.722 331.374 167.821 352.094C142.046 383.682 105.687 401.853 65.1561 407.386C53.4066 408.995 41.5477 410.163 29.5794 410.891C29.3547 410.903 29.1328 410.838 28.9514 410.707C28.7701 410.576 28.6404 410.388 28.5844 410.174L20.7938 379.365C20.7632 379.243 20.7615 379.115 20.7888 378.991C20.8161 378.868 20.8716 378.752 20.9512 378.653C21.0308 378.554 21.1323 378.474 21.2481 378.419C21.3638 378.364 21.4908 378.335 21.6194 378.336C31.2942 378.426 40.962 378.343 50.6227 378.086C90.698 377.015 127.185 360.363 150.44 327.693C163.598 309.199 167.451 290.072 170.108 267.699C175.033 226.191 179.931 184.683 184.8 143.176C184.816 143.025 184.8 142.872 184.753 142.728C184.705 142.584 184.627 142.451 184.524 142.339C184.421 142.227 184.295 142.138 184.155 142.078C184.014 142.017 183.863 141.988 183.71 141.99L169.398 142.167C169.23 142.167 169.066 142.121 168.924 142.035C168.782 141.948 168.667 141.825 168.594 141.678C167.684 139.792 167.257 137.868 167.313 135.905C167.376 133.773 167.396 131.656 167.417 129.543C167.457 125.254 167.498 120.976 167.895 116.601C167.994 115.519 168.594 114.978 169.695 114.978L183.741 114.968C184.12 114.968 184.484 114.826 184.761 114.569C185.038 114.312 185.207 113.96 185.234 113.585C187.848 72.9368 214.449 39.9859 255.72 32.0498C255.932 32.0094 256.123 31.8995 256.262 31.7386C256.401 31.5777 256.479 31.3754 256.482 31.1657C256.602 23.1291 256.673 15.0647 256.694 6.97263C256.694 3.31142 257.689 0.388683 261.733 0.139055C263.821 0.00730732 268.959 -0.030815 277.145 0.0246578C283.961 0.0766636 284.332 3.59225 284.311 9.44811C284.29 16.5001 284.3 23.7289 284.342 31.1345C284.346 31.4518 284.464 31.7575 284.675 31.9974C284.886 32.2373 285.177 32.3959 285.496 32.4451C326.418 38.6962 354.723 73.3217 355.813 113.595C355.822 113.934 355.964 114.256 356.211 114.494C356.457 114.733 356.789 114.869 357.136 114.874L372.739 115.02C373.068 115.022 373.385 115.148 373.624 115.372C373.864 115.595 374.009 115.901 374.03 116.226C374.503 123.944 374.436 131.766 373.829 139.691C373.695 141.487 372.654 142.299 370.707 142.125C366.705 141.761 362.355 141.845 358.555 141.959ZM330.832 114.666C328.281 61.9532 263.267 36.1271 226.484 76.5044C217.007 86.9125 211.855 99.4667 211.03 114.167C211.024 114.269 211.039 114.372 211.075 114.468C211.111 114.564 211.166 114.652 211.237 114.727C211.308 114.802 211.394 114.862 211.489 114.903C211.585 114.945 211.688 114.967 211.792 114.968L330.462 115.051C330.716 115.051 330.839 114.923 330.832 114.666ZM270.836 168.024C284.886 184.41 300.439 199.28 317.495 212.635C322.026 216.178 329.495 221.129 339.904 227.488C340.059 227.585 340.13 227.543 340.116 227.363L331.944 142.489C331.909 142.115 331.7 141.928 331.319 141.928L210.596 141.793C210.489 141.792 210.386 141.832 210.307 141.903C210.229 141.975 210.18 142.072 210.172 142.177C208.07 170.441 205.31 198.642 201.895 226.78C201.86 227.099 201.98 227.172 202.255 226.999C228.153 210.988 250.766 191.333 270.095 168.035C270.342 167.736 270.589 167.733 270.836 168.024ZM193.364 426.504C204.362 429.593 216.132 429.79 227.13 426.035C231.77 424.453 236.24 422.189 240.711 419.923C247.318 416.576 253.931 413.227 261.108 412.067C277.954 409.351 290.674 415.401 305.145 422.283L306.015 422.696C306.277 422.821 306.541 422.946 306.804 423.071C320.008 429.326 333.232 430.81 346.478 427.523C349.01 426.891 351.937 425.804 354.991 424.67L354.991 424.67C359.531 422.984 364.349 421.195 368.558 420.648C376.927 419.559 385.297 420.967 393.666 424.871C401.139 428.351 409.223 429.88 417.917 429.457C423.633 429.172 429.968 427.382 436.163 425.632C438.308 425.026 440.437 424.425 442.516 423.893C444.972 423.262 449.217 423.151 455.25 423.56C459.521 423.851 464.746 425.247 469.606 426.545C472.902 427.426 476.031 428.261 478.58 428.677C486.173 429.912 493.854 430.005 501.624 428.958C501.774 428.939 501.926 428.962 502.063 429.023C502.201 429.084 502.319 429.181 502.403 429.304C502.488 429.427 502.536 429.571 502.542 429.719C502.548 429.867 502.513 430.014 502.439 430.144C499.539 435.109 495.901 439.633 491.526 443.717C487.779 447.212 477.924 444.612 472.832 443.083C471.575 442.704 470.34 442.319 469.12 441.938C460.066 439.114 451.861 436.555 441.469 438.746C438.997 439.269 435.914 440.395 432.785 441.538C429.63 442.691 426.428 443.861 423.76 444.446C410.814 447.295 400.144 443.884 387.971 439.224C380.784 436.478 375.333 435.688 368.198 436.655C364.02 437.225 359.838 438.787 355.6 440.369C352.185 441.645 348.733 442.934 345.218 443.728C331.542 446.807 318.434 445.513 305.894 439.848C303.963 438.975 302.069 438.084 300.195 437.203C288.028 431.48 276.751 426.176 262.23 428.979C256.233 430.145 249.322 433.476 242.868 436.588C238.899 438.501 235.103 440.331 231.798 441.523C218.891 446.176 205.886 446.384 192.781 442.147C191.16 441.624 189.501 441.047 187.828 440.464L187.826 440.464C182.738 438.692 177.509 436.872 172.754 436.395C163.499 435.466 156.752 438.03 147.226 441.651L147.194 441.663L147.136 441.685C146.558 441.905 145.97 442.128 145.371 442.355C135.364 446.141 125.393 446.654 115.457 443.894C113.552 443.364 111.537 442.675 109.431 441.955L109.43 441.955C103.356 439.879 96.525 437.544 89.3964 438.007C84.0816 438.346 78.9732 440.071 73.8574 441.799L73.8572 441.799C66.8789 444.156 59.8867 446.518 52.3378 445.371C47.0029 444.56 39.8685 434.44 37.0635 430.03C36.9851 429.905 36.9447 429.76 36.9471 429.614C36.9495 429.467 36.9944 429.324 37.0768 429.201C37.1591 429.079 37.2753 428.982 37.4117 428.923C37.5481 428.863 37.6991 428.843 37.8467 428.865C49.7727 430.723 61.5821 429.724 73.2752 425.869C79.5416 423.803 86.1856 423.023 93.207 423.529C97.6162 423.846 102.59 425.16 107.383 426.426C110.3 427.196 113.149 427.949 115.764 428.449C126.102 430.425 135.876 429.586 145.085 425.931C150.342 423.844 154.036 422.509 156.167 421.927C165.849 419.257 175.217 419.635 184.271 423.061C190.312 425.349 193.342 426.497 193.364 426.504ZM242.766 451.914C238.139 454.228 233.49 456.553 228.856 458.092C219.083 461.33 209.203 461.982 199.218 460.047C195.028 459.236 191.026 457.689 187.069 456.159C182.357 454.338 177.709 452.542 172.882 452.039C169.537 451.692 166.189 451.758 162.837 452.236C157.974 452.926 153.453 454.815 148.954 456.695C144.16 458.699 139.39 460.692 134.257 461.212C124.237 462.221 116.49 459.536 107.701 456.489C106.434 456.05 105.145 455.603 103.825 455.159C91.08 450.874 75.3293 455.398 63.6857 461.951C63.5964 462.001 63.52 462.071 63.4623 462.155C63.4047 462.239 63.3673 462.335 63.353 462.435C63.3387 462.536 63.3479 462.638 63.3799 462.734C63.4118 462.83 63.4658 462.918 63.5375 462.991C63.7722 463.234 64.0412 463.518 64.3397 463.833C67.5288 467.196 74.0849 474.111 78.0921 472.903C85.5969 470.625 94.5202 468.608 101.983 470.199C104.89 470.816 108.046 471.869 111.259 472.94L111.259 472.94C115.685 474.417 120.22 475.93 124.36 476.388C129.885 476.998 135.361 476.714 140.788 475.535C143.544 474.933 146.755 473.781 150.111 472.576L150.111 472.576L150.112 472.576C154.064 471.158 158.217 469.668 162.064 468.92C172.126 466.973 180.395 469.757 190.983 473.322L191.131 473.371C204.165 477.754 217.375 477.747 230.761 473.35C235.313 471.86 242.977 468.67 253.752 463.781C261.423 460.3 269.499 459.396 277.982 461.067C283.649 462.185 290.253 465.152 296.68 468.039C300.059 469.558 303.39 471.054 306.509 472.248C321.423 477.948 336.708 477.969 351.855 472.945C352.452 472.746 353.043 472.548 353.629 472.351L353.638 472.348C362.074 469.517 369.529 467.014 379.176 468.774C383.517 469.566 387.665 471.028 391.784 472.479L391.784 472.479L391.784 472.479L391.785 472.479C396.965 474.305 402.099 476.114 407.512 476.554C414.823 477.157 421.915 476.18 428.788 473.621C433.756 471.776 436.833 470.74 438.018 470.511C446.748 468.825 453.974 470.521 462.12 472.434C463.121 472.669 464.136 472.907 465.169 473.142C465.315 473.178 465.468 473.182 465.618 473.153C465.768 473.125 465.911 473.064 466.037 472.976C470.307 469.932 474.223 466.493 477.787 462.658C477.861 462.578 477.915 462.481 477.944 462.377C477.973 462.272 477.977 462.163 477.956 462.057C477.934 461.952 477.887 461.853 477.819 461.769C477.751 461.686 477.664 461.62 477.565 461.576C461.602 454.587 446.614 449.833 429.593 457.562C419.685 462.062 409.488 462.672 399.002 459.392C396.754 458.693 394.241 457.621 391.681 456.53C388.416 455.138 385.074 453.714 382.108 452.985C375.517 451.376 369.215 451.414 363.203 453.099C360.809 453.771 358.06 454.827 355.172 455.936C350.729 457.643 345.96 459.474 341.662 460.224C328.071 462.596 315.125 460.599 302.825 454.233C288.302 446.724 273.197 440.327 256.557 445.798C252.009 447.291 247.399 449.597 242.767 451.914L242.766 451.914ZM241.564 484.918L241.565 484.918C248.545 481.778 255.432 478.68 262.516 477.594C277.569 475.283 288.789 480.324 301.526 486.047C303.066 486.739 304.628 487.441 306.222 488.141C317.767 493.217 329.774 494.51 342.243 492.02C345.499 491.367 349.181 490.029 352.904 488.676C357.183 487.121 361.516 485.547 365.319 484.968C370.308 484.213 375.276 484.334 380.223 485.332C383.545 486 387.488 487.524 391.318 489.004C394.651 490.292 397.899 491.547 400.578 492.176C412.617 494.991 420.775 492.427 431.062 489.193L431.075 489.189C431.845 488.946 432.627 488.701 433.424 488.453C438.589 486.851 442.199 486.674 447.322 487.298C449.326 487.548 449.601 488.363 448.148 489.743C436.144 501.121 419.208 511.231 401.933 508.35C398.274 507.735 394.048 506.212 389.896 504.716C387.032 503.684 384.204 502.664 381.62 501.964C374.832 500.126 367.711 500.13 360.259 501.974C357.799 502.583 354.981 503.553 352.084 504.551C348.349 505.837 344.483 507.168 341.079 507.83C329.697 510.035 318.455 509.168 307.355 505.23C303.571 503.888 299.984 502.342 296.462 500.824L296.461 500.823C286.139 496.374 276.374 492.164 263.85 494.049C257.722 494.969 250.433 498.163 243.771 501.083C240.04 502.718 236.505 504.266 233.481 505.282C218.26 510.399 202.657 509.817 186.674 503.534C178.382 500.282 169.614 499.703 160.37 501.798C157.73 502.393 154.704 503.512 151.577 504.669L151.576 504.669C147.98 506 144.249 507.38 140.819 508.069C123.11 511.616 105.539 500.57 92.72 489.493C92.5754 489.367 92.4692 489.203 92.4132 489.021C92.3573 488.839 92.3539 488.646 92.4035 488.463C92.453 488.28 92.5535 488.115 92.6937 487.986C92.8338 487.858 93.0079 487.771 93.1963 487.735C101.046 486.236 108.057 488.306 115.046 490.369C119.358 491.642 123.661 492.913 128.148 493.341C131.832 493.688 136.073 493.324 140.872 492.249C144.086 491.525 147.566 490.164 151.07 488.794C155.114 487.213 159.189 485.62 162.921 484.979C172.61 483.325 179.833 485.819 187.629 488.512L187.629 488.512C191.058 489.696 194.598 490.919 198.508 491.844C207.731 494.028 216.877 493.785 225.945 491.116C231.278 489.545 236.446 487.22 241.564 484.918ZM349.663 520.8C337.701 525.294 327.518 526.781 315.229 524.004C309.99 522.815 304.003 520.19 298.058 517.582C295.054 516.265 292.06 514.952 289.179 513.832C270.338 506.499 255.233 510.961 238.106 519.459C225.795 525.564 213.538 527.395 199.777 523.318C197.724 522.707 193.881 521.366 188.25 519.292C176.638 515.017 161.946 515.631 151.223 522.766C151.112 522.841 151.022 522.944 150.965 523.064C150.907 523.184 150.883 523.318 150.895 523.45C150.906 523.582 150.954 523.709 151.032 523.817C151.11 523.926 151.216 524.012 151.339 524.066C156.832 526.566 162.395 528.092 168.211 529.687C168.784 529.844 169.36 530.002 169.938 530.161C180.727 533.143 191.588 535.858 202.519 538.306C213.548 540.774 224.493 540.545 235.354 537.619C238.742 536.707 242.638 534.893 246.645 533.027C251.412 530.807 256.336 528.515 260.747 527.582C275.021 524.57 285.133 528.981 298.564 534.84C299.327 535.173 300.101 535.51 300.886 535.851C314.806 541.894 331.499 540.386 346.275 536.787C358.985 533.688 371.606 530.276 384.138 526.552C385.478 526.154 386.857 525.583 388.238 525.012C389.236 524.6 390.234 524.187 391.22 523.838C391.293 523.812 391.357 523.767 391.404 523.707C391.452 523.647 391.481 523.575 391.487 523.499C391.494 523.423 391.478 523.347 391.442 523.28C391.406 523.213 391.351 523.157 391.283 523.12C381.898 517.753 371.997 515.815 361.582 517.306C358.787 517.701 354.814 518.866 349.663 520.8Z" fill="white"/>
</svg>
