<svg width="1920" height="857" viewBox="0 0 1920 857" fill="none" xmlns="http://www.w3.org/2000/svg">
<g clip-path="url(#clip0_222_10)">
<rect width="1920" height="693" fill="#3F9CDA"/>
<circle cx="251" cy="258" r="40" fill="#73BCED" fill-opacity="0.8"/>
<circle cx="1839" cy="325" r="237" fill="#47A6E5" fill-opacity="0.8"/>
<circle cx="804" cy="490" r="29" fill="#47A6E5" fill-opacity="0.8"/>
<circle cx="1055" cy="347" r="55" fill="#47A6E5" fill-opacity="0.8"/>
<circle cx="607" cy="260" r="93" fill="#47A6E5" fill-opacity="0.8"/>
<circle cx="1394.5" cy="596.5" r="52.5" fill="#47A6E5" fill-opacity="0.8"/>
<ellipse cx="1391.5" cy="243.5" rx="49.5" ry="52.5" fill="#47A6E5" fill-opacity="0.8"/>
<ellipse cx="433" cy="577.5" rx="58" ry="58.5" fill="#47A6E5" fill-opacity="0.8"/>
<circle cx="189" cy="347" r="22" fill="#73BCED" fill-opacity="0.8"/>
<circle cx="111" cy="402" r="15" fill="#73BCED" fill-opacity="0.8"/>
</g>
<g clip-path="url(#clip1_222_10)">
<path fill-rule="evenodd" clip-rule="evenodd" d="M1920 768.502L1902.4 774.794C1884.8 781.085 1849.6 793.669 1812.8 790.523C1777.6 787.377 1742.4 768.502 1707.2 759.064C1670.4 749.626 1635.2 749.626 1600 743.334C1564.8 737.043 1529.6 724.459 1492.8 724.459C1457.6 724.459 1422.4 737.043 1387.2 749.626C1350.4 762.21 1315.2 774.794 1280 768.502C1244.8 762.21 1209.6 737.043 1172.8 749.626C1137.6 762.21 1102.4 812.544 1067.2 837.712C1030.4 862.879 995.2 862.879 960 840.858C924.8 818.836 889.6 774.794 852.8 762.21C817.6 749.626 782.4 768.502 747.2 765.356C710.4 762.21 675.2 737.043 640 749.626C604.8 762.21 569.6 812.544 532.8 828.274C497.6 844.003 462.4 825.128 427.2 809.399C390.4 793.669 355.2 781.085 320 790.523C284.8 799.961 249.6 831.42 212.8 840.858C177.6 850.295 142.4 837.712 107.2 825.128C70.4 812.544 35.2 799.961 17.6 793.669L0 787.377V693H17.6C35.2 693 70.4 693 107.2 693C142.4 693 177.6 693 212.8 693C249.6 693 284.8 693 320 693C355.2 693 390.4 693 427.2 693C462.4 693 497.6 693 532.8 693C569.6 693 604.8 693 640 693C675.2 693 710.4 693 747.2 693C782.4 693 817.6 693 852.8 693C889.6 693 924.8 693 960 693C995.2 693 1030.4 693 1067.2 693C1102.4 693 1137.6 693 1172.8 693C1209.6 693 1244.8 693 1280 693C1315.2 693 1350.4 693 1387.2 693C1422.4 693 1457.6 693 1492.8 693C1529.6 693 1564.8 693 1600 693C1635.2 693 1670.4 693 1707.2 693C1742.4 693 1777.6 693 1812.8 693C1849.6 693 1884.8 693 1902.4 693H1920V768.502Z" fill="#7BC8FB" fill-opacity="0.6"/>
<path fill-rule="evenodd" clip-rule="evenodd" d="M1920 798.429L1904 780.857C1889.6 763.286 1859.2 728.143 1828.8 736.929C1798.4 745.714 1768 798.429 1737.6 810.143C1707.2 821.857 1676.8 792.571 1646.4 775C1616 757.429 1584 751.571 1553.6 742.786C1523.2 734 1492.8 722.286 1462.4 722.286C1432 722.286 1401.6 734 1371.2 731.071C1340.8 728.143 1310.4 710.571 1280 722.286C1249.6 734 1219.2 775 1188.8 798.429C1158.4 821.857 1128 827.714 1097.6 833.571C1067.2 839.429 1036.8 845.286 1006.4 848.214C976 851.143 944 851.143 913.6 824.786C883.2 798.429 852.8 745.714 822.4 728.143C792 710.571 761.6 728.143 731.2 748.643C700.8 769.143 670.4 792.571 640 804.286C609.6 816 579.2 816 548.8 816C518.4 816 488 816 457.6 821.857C427.2 827.714 396.8 839.429 366.4 818.929C336 798.429 304 745.714 273.6 742.786C243.2 739.857 212.8 786.714 182.4 816C152 845.286 121.6 857 91.2 857C60.7999 857 30.4 845.286 16 839.429L0 833.571V693H16C30.4 693 60.7999 693 91.2 693C121.6 693 152 693 182.4 693C212.8 693 243.2 693 273.6 693C304 693 336 693 366.4 693C396.8 693 427.2 693 457.6 693C488 693 518.4 693 548.8 693C579.2 693 609.6 693 640 693C670.4 693 700.8 693 731.2 693C761.6 693 792 693 822.4 693C852.8 693 883.2 693 913.6 693C944 693 976 693 1006.4 693C1036.8 693 1067.2 693 1097.6 693C1128 693 1158.4 693 1188.8 693C1219.2 693 1249.6 693 1280 693C1310.4 693 1340.8 693 1371.2 693C1401.6 693 1432 693 1462.4 693C1492.8 693 1523.2 693 1553.6 693C1584 693 1616 693 1646.4 693C1676.8 693 1707.2 693 1737.6 693C1768 693 1798.4 693 1828.8 693C1859.2 693 1889.6 693 1904 693H1920V798.429Z" fill="#0099FF" fill-opacity="0.48"/>
<path fill-rule="evenodd" clip-rule="evenodd" d="M1920 766.976L1908 779.52C1895 791.742 1871 816.508 1846 819.725C1822 822.619 1797 804.286 1772 804.286C1748 804.286 1723 822.619 1698 822.619C1674 822.619 1649 804.286 1625 779.52C1600 754.754 1575 723.877 1551 733.205C1526 742.532 1502 791.742 1477 797.853C1452 804.286 1428 766.976 1403 760.865C1378 754.754 1354 779.52 1329 801.07C1305 822.619 1280 841.274 1255 825.836C1231 810.397 1206 760.865 1182 757.971C1157 754.754 1132 797.853 1108 813.292C1083 828.731 1058 816.508 1034 794.959C1009 773.409 985 742.532 960 729.988C935 717.766 911 723.877 886 733.205C862 742.532 837 754.754 812 748.643C788 742.532 763 717.766 738 727.093C714 736.099 689 779.52 665 801.07C640 822.619 615 822.619 591 828.731C566 835.163 542 847.385 517 828.731C492 810.397 468 760.865 443 745.427C418 729.988 394 748.643 369 748.643C345 748.643 320 729.988 295 736.099C271 742.532 246 773.409 222 797.853C197 822.619 172 841.274 148 850.602C123 859.608 98 859.608 74 847.385C49 835.163 25 810.397 12 797.853L0 785.631V693H12C25 693 49 693 74 693C98 693 123 693 148 693C172 693 197 693 222 693C246 693 271 693 295 693C320 693 345 693 369 693C394 693 418 693 443 693C468 693 492 693 517 693C542 693 566 693 591 693C615 693 640 693 665 693C689 693 714 693 738 693C763 693 788 693 812 693C837 693 862 693 886 693C911 693 935 693 960 693C985 693 1009 693 1034 693C1058 693 1083 693 1108 693C1132 693 1157 693 1182 693C1206 693 1231 693 1255 693C1280 693 1305 693 1329 693C1354 693 1378 693 1403 693C1428 693 1452 693 1477 693C1502 693 1526 693 1551 693C1575 693 1600 693 1625 693C1649 693 1674 693 1698 693C1723 693 1748 693 1772 693C1797 693 1822 693 1846 693C1871 693 1895 693 1908 693H1920V766.976Z" fill="#1D75AF" fill-opacity="0.46"/>
</g>
<defs>
<clipPath id="clip0_222_10">
<rect width="1920" height="693" fill="white"/>
</clipPath>
<clipPath id="clip1_222_10">
<rect width="1920" height="164" fill="white" transform="matrix(-1 0 0 -1 1920 857)"/>
</clipPath>
</defs>
</svg>
